<svg width="28" height="28" viewBox="0 0 28 28" fill="none" xmlns="http://www.w3.org/2000/svg">
<path d="M27.4204 25.9952L20.118 18.6816C21.7392 16.7328 22.7164 14.2296 22.7164 11.494C22.7164 5.2892 17.6932 0.257599 11.4996 0.257599C5.30317 0.257599 0.279968 5.2892 0.279968 11.494C0.279968 17.6988 5.30317 22.7304 11.4996 22.7304C14.2296 22.7304 16.73 21.7532 18.676 20.1292L25.9784 27.4456C26.1772 27.6444 26.4404 27.7452 26.7008 27.7452C26.9612 27.7452 27.2244 27.6444 27.4232 27.4456C27.8208 27.0424 27.8208 26.3956 27.4204 25.9952ZM11.4996 20.6836C6.43997 20.6836 2.32397 16.5592 2.32397 11.494C2.32397 6.426 6.43997 2.3044 11.4996 2.3044C16.5564 2.3044 20.6752 6.426 20.6752 11.494C20.6724 16.5592 16.5564 20.6836 11.4996 20.6836Z" fill="#B1B2B8"/>
</svg>
